<svg xmlns="http://www.w3.org/2000/svg" viewBox="0 0 369 160" width="369" height="160">
  <defs>
    <marker id="arrow" markerWidth="10" markerHeight="10" refX="5" refY="5" orient="auto">
      <path d="M0,0 L10,5 L0,10 Z" fill="#333"/>
    </marker>
  </defs>
  <text x="10" y="15" font-family="sans-serif" font-size="12" font-weight="bold" fill="#666">brief_form</text>
  <circle cx="20" cy="35" r="8" fill="none" stroke="#333" stroke-width="2"/><line x1="28" y1="35" x2="40" y2="35" stroke="#333" stroke-width="2"/><rect x="40" y="20" width="83" height="30" fill="#fff4e8" stroke="#333" stroke-width="2"/><text x="81" y="40" text-anchor="middle" font-family="sans-serif" font-size="14" font-style="italic" fill="#333">operand</text><line x1="123" y1="35" x2="138" y2="35" stroke="#333" stroke-width="2"/><path d="M138,35 Q148,-25 158,-25" fill="none" stroke="#333" stroke-width="2"/><rect x="158" y="-40" width="38" height="30" rx="15" fill="#e8f4e8" stroke="#333" stroke-width="2"/><text x="177" y="-20" text-anchor="middle" font-family="monospace" font-size="14" fill="#333">=&gt;</text><path d="M196,-25 Q206,-25 216,35" fill="none" stroke="#333" stroke-width="2"/><path d="M138,35 Q148,5 158,5" fill="none" stroke="#333" stroke-width="2"/><rect x="158" y="-10" width="38" height="30" rx="15" fill="#e8f4e8" stroke="#333" stroke-width="2"/><text x="177" y="10" text-anchor="middle" font-family="monospace" font-size="14" fill="#333">&lt;=</text><path d="M196,5 Q206,5 216,35" fill="none" stroke="#333" stroke-width="2"/><rect x="158" y="20" width="38" height="30" rx="15" fill="#e8f4e8" stroke="#333" stroke-width="2"/><text x="177" y="40" text-anchor="middle" font-family="monospace" font-size="14" fill="#333">&lt;&gt;</text><path d="M138,35 Q148,65 158,65" fill="none" stroke="#333" stroke-width="2"/><rect x="158" y="50" width="38" height="30" rx="15" fill="#e8f4e8" stroke="#333" stroke-width="2"/><text x="177" y="70" text-anchor="middle" font-family="monospace" font-size="14" fill="#333">&gt;&lt;</text><path d="M196,65 Q206,65 216,35" fill="none" stroke="#333" stroke-width="2"/><line x1="226" y1="35" x2="241" y2="35" stroke="#333" stroke-width="2"/><rect x="241" y="20" width="83" height="30" fill="#fff4e8" stroke="#333" stroke-width="2"/><text x="282" y="40" text-anchor="middle" font-family="sans-serif" font-size="14" font-style="italic" fill="#333">operand</text><line x1="324" y1="35" x2="339" y2="35" stroke="#333" stroke-width="2"/><circle cx="347" cy="35" r="8" fill="none" stroke="#333" stroke-width="2"/><circle cx="347" cy="35" r="4" fill="#333"/>
</svg>