<svg xmlns="http://www.w3.org/2000/svg" viewBox="0 0 692 60" width="692" height="60">
  <defs>
    <marker id="arrow" markerWidth="10" markerHeight="10" refX="5" refY="5" orient="auto">
      <path d="M0,0 L10,5 L0,10 Z" fill="#333"/>
    </marker>
  </defs>
  <text x="10" y="15" font-family="sans-serif" font-size="12" font-weight="bold" fill="#666">claim</text>
  <circle cx="20" cy="35" r="8" fill="none" stroke="#333" stroke-width="2"/><line x1="28" y1="35" x2="40" y2="35" stroke="#333" stroke-width="2"/><rect x="40" y="20" width="65" height="30" rx="15" fill="#e8f4e8" stroke="#333" stroke-width="2"/><text x="72" y="40" text-anchor="middle" font-family="monospace" font-size="14" fill="#333">    -</text><line x1="105" y1="35" x2="120" y2="35" stroke="#333" stroke-width="2"/><rect x="120" y="20" width="110" height="30" fill="#fff4e8" stroke="#333" stroke-width="2"/><text x="175" y="40" text-anchor="middle" font-family="sans-serif" font-size="14" font-style="italic" fill="#333">claim_body</text><line x1="230" y1="35" x2="245" y2="35" stroke="#333" stroke-width="2"/><path d="M245,35 Q245,10 265,10 L364,10 Q384,10 384,35" fill="none" stroke="#333" stroke-width="2"/><rect x="245" y="20" width="119" height="30" rx="15" fill="#e8f4e8" stroke="#333" stroke-width="2"/><text x="304" y="40" text-anchor="middle" font-family="monospace" font-size="14" fill="#333">| condition</text><line x1="384" y1="35" x2="399" y2="35" stroke="#333" stroke-width="2"/><path d="M399,35 Q399,10 419,10 L482,10 Q502,10 502,35" fill="none" stroke="#333" stroke-width="2"/><rect x="399" y="20" width="83" height="30" rx="15" fill="#e8f4e8" stroke="#333" stroke-width="2"/><text x="440" y="40" text-anchor="middle" font-family="monospace" font-size="14" fill="#333">@source</text><line x1="502" y1="35" x2="517" y2="35" stroke="#333" stroke-width="2"/><path d="M517,35 Q517,10 537,10 L627,10 Q647,10 647,35" fill="none" stroke="#333" stroke-width="2"/><rect x="517" y="20" width="110" height="30" rx="15" fill="#e8f4e8" stroke="#333" stroke-width="2"/><text x="572" y="40" text-anchor="middle" font-family="monospace" font-size="14" fill="#333">&amp;reference</text><line x1="647" y1="35" x2="662" y2="35" stroke="#333" stroke-width="2"/><circle cx="670" cy="35" r="8" fill="none" stroke="#333" stroke-width="2"/><circle cx="670" cy="35" r="4" fill="#333"/>
</svg>