<svg xmlns="http://www.w3.org/2000/svg" viewBox="0 0 337 60" width="337" height="60">
  <defs>
    <marker id="arrow" markerWidth="10" markerHeight="10" refX="5" refY="5" orient="auto">
      <path d="M0,0 L10,5 L0,10 Z" fill="#333"/>
    </marker>
  </defs>
  <text x="10" y="15" font-family="sans-serif" font-size="12" font-weight="bold" fill="#666">facet</text>
  <circle cx="20" cy="35" r="8" fill="none" stroke="#333" stroke-width="2"/><line x1="28" y1="35" x2="40" y2="35" stroke="#333" stroke-width="2"/><rect x="40" y="20" width="47" height="30" rx="15" fill="#e8f4e8" stroke="#333" stroke-width="2"/><text x="63" y="40" text-anchor="middle" font-family="monospace" font-size="14" fill="#333">  .</text><line x1="87" y1="35" x2="102" y2="35" stroke="#333" stroke-width="2"/><rect x="102" y="20" width="110" height="30" fill="#fff4e8" stroke="#333" stroke-width="2"/><text x="157" y="40" text-anchor="middle" font-family="sans-serif" font-size="14" font-style="italic" fill="#333">facet_name</text><line x1="212" y1="35" x2="227" y2="35" stroke="#333" stroke-width="2"/><rect x="227" y="20" width="65" height="30" rx="0" fill="#fff4e8" stroke="#333" stroke-width="2"/><text x="259" y="40" text-anchor="middle" font-family="monospace" font-size="14" fill="#333">claim</text><path d="M292,35 Q307,35 307,55 L212,55 Q212,35 227,35" fill="none" stroke="#333" stroke-width="2" marker-start="url(#arrow)"/><line x1="292" y1="35" x2="307" y2="35" stroke="#333" stroke-width="2"/><circle cx="315" cy="35" r="8" fill="none" stroke="#333" stroke-width="2"/><circle cx="315" cy="35" r="4" fill="#333"/>
</svg>