<svg xmlns="http://www.w3.org/2000/svg" viewBox="0 0 164 190" width="164" height="190">
  <defs>
    <marker id="arrow" markerWidth="10" markerHeight="10" refX="5" refY="5" orient="auto">
      <path d="M0,0 L10,5 L0,10 Z" fill="#333"/>
    </marker>
  </defs>
  <text x="10" y="15" font-family="sans-serif" font-size="12" font-weight="bold" fill="#666">modifier</text>
  <circle cx="20" cy="35" r="8" fill="none" stroke="#333" stroke-width="2"/><line x1="28" y1="35" x2="40" y2="35" stroke="#333" stroke-width="2"/><path d="M40,35 Q50,-25 60,-25" fill="none" stroke="#333" stroke-width="2"/><rect x="60" y="-40" width="29" height="30" rx="15" fill="#e8f4e8" stroke="#333" stroke-width="2"/><text x="74" y="-20" text-anchor="middle" font-family="monospace" font-size="14" fill="#333">^</text><path d="M89,-25 Q99,-25 109,35" fill="none" stroke="#333" stroke-width="2"/><path d="M40,35 Q50,5 60,5" fill="none" stroke="#333" stroke-width="2"/><rect x="60" y="-10" width="29" height="30" rx="15" fill="#e8f4e8" stroke="#333" stroke-width="2"/><text x="74" y="10" text-anchor="middle" font-family="monospace" font-size="14" fill="#333">v</text><path d="M89,5 Q99,5 109,35" fill="none" stroke="#333" stroke-width="2"/><rect x="60" y="20" width="29" height="30" rx="15" fill="#e8f4e8" stroke="#333" stroke-width="2"/><text x="74" y="40" text-anchor="middle" font-family="monospace" font-size="14" fill="#333">!</text><path d="M40,35 Q50,65 60,65" fill="none" stroke="#333" stroke-width="2"/><rect x="60" y="50" width="29" height="30" rx="15" fill="#e8f4e8" stroke="#333" stroke-width="2"/><text x="74" y="70" text-anchor="middle" font-family="monospace" font-size="14" fill="#333">?</text><path d="M89,65 Q99,65 109,35" fill="none" stroke="#333" stroke-width="2"/><path d="M40,35 Q50,95 60,95" fill="none" stroke="#333" stroke-width="2"/><rect x="60" y="80" width="29" height="30" rx="15" fill="#e8f4e8" stroke="#333" stroke-width="2"/><text x="74" y="100" text-anchor="middle" font-family="monospace" font-size="14" fill="#333">*</text><path d="M89,95 Q99,95 109,35" fill="none" stroke="#333" stroke-width="2"/><line x1="119" y1="35" x2="134" y2="35" stroke="#333" stroke-width="2"/><circle cx="142" cy="35" r="8" fill="none" stroke="#333" stroke-width="2"/><circle cx="142" cy="35" r="4" fill="#333"/>
</svg>